<svg xmlns="http://www.w3.org/2000/svg" viewBox="0 0 768 299.78"><defs><style>.a{fill:#28286e;}.b{fill:#f06464;}</style></defs><path class="a" d="M123.58,12.73a1.18,1.18,0,0,1,.86-.35h11.85a1.21,1.21,0,0,1,1.22,1.22V82.09a1.21,1.21,0,0,1-1.22,1.22H124.84a1.46,1.46,0,0,1-1.42-.81L97.18,39.13c-.14-.2-.27-.29-.41-.25s-.2.18-.2.45l.2,42.76a1.18,1.18,0,0,1-.35.87,1.19,1.19,0,0,1-.86.35H83.7a1.19,1.19,0,0,1-.86-.35,1.18,1.18,0,0,1-.35-.87V13.6a1.18,1.18,0,0,1,.35-.87,1.19,1.19,0,0,1,.86-.35H95.15a1.45,1.45,0,0,1,1.42.81l26.14,43.17c.14.2.27.28.41.25s.2-.19.2-.46l-.1-42.55A1.19,1.19,0,0,1,123.58,12.73Z"/><path class="a" d="M161.25,81.18a23.25,23.25,0,0,1-9.37-9.07,26.47,26.47,0,0,1-3.35-13.42V37a26,26,0,0,1,3.35-13.27,23.08,23.08,0,0,1,9.37-9,32.25,32.25,0,0,1,28,0,23.14,23.14,0,0,1,9.37,9A26,26,0,0,1,201.93,37V58.69a26.73,26.73,0,0,1-3.34,13.47,22.93,22.93,0,0,1-9.37,9.07,29.55,29.55,0,0,1-14,3.19A29,29,0,0,1,161.25,81.18ZM184.2,68.62a13,13,0,0,0,3.45-9.43V36.9a13.25,13.25,0,0,0-3.4-9.47,13.1,13.1,0,0,0-18,0,13.24,13.24,0,0,0-3.39,9.47V59.19a13.09,13.09,0,0,0,3.39,9.43,11.88,11.88,0,0,0,9,3.54A12,12,0,0,0,184.2,68.62Z"/><path class="a" d="M250.39,82.4,237.72,54.33a.66.66,0,0,0-.61-.41h-9.42a.45.45,0,0,0-.51.51V82.09A1.2,1.2,0,0,1,226,83.31H214.11a1.19,1.19,0,0,1-.86-.35,1.18,1.18,0,0,1-.35-.87V13.6a1.18,1.18,0,0,1,.35-.87,1.19,1.19,0,0,1,.86-.35h29A23.86,23.86,0,0,1,254.49,15a18.49,18.49,0,0,1,7.6,7.5,22.89,22.89,0,0,1,2.69,11.25,20,20,0,0,1-3.45,11.8,18.41,18.41,0,0,1-9.63,6.95.47.47,0,0,0-.3.7l13.78,28.68a1.45,1.45,0,0,1,.2.61q0,.81-1.11.81H251.81A1.43,1.43,0,0,1,250.39,82.4ZM227.18,25.15V42.47a.45.45,0,0,0,.51.51H241a9.69,9.69,0,0,0,6.94-2.53,8.66,8.66,0,0,0,2.69-6.59,8.83,8.83,0,0,0-2.69-6.64A9.6,9.6,0,0,0,241,24.64H227.69A.45.45,0,0,0,227.18,25.15Z"/><path class="a" d="M275.47,83a1.19,1.19,0,0,1-.36-.87V13.6a1.21,1.21,0,0,1,1.22-1.22h25.33A31.17,31.17,0,0,1,315,15.06a20.73,20.73,0,0,1,8.87,7.55A20.32,20.32,0,0,1,327,33.86v28a20.34,20.34,0,0,1-3.14,11.25A20.64,20.64,0,0,1,315,80.62a30.87,30.87,0,0,1-13.32,2.69H276.33A1.18,1.18,0,0,1,275.47,83Zm14.44-11.91h12.26a9.81,9.81,0,0,0,7.55-3.14,12.31,12.31,0,0,0,3-8.41V36.19a12,12,0,0,0-2.88-8.41,10,10,0,0,0-7.76-3.14H289.91a.45.45,0,0,0-.51.51V70.54A.45.45,0,0,0,289.91,71.05Z"/><path class="a" d="M338.44,83a1.18,1.18,0,0,1-.35-.87V13.6a1.18,1.18,0,0,1,.35-.87,1.19,1.19,0,0,1,.86-.35h11.86a1.19,1.19,0,0,1,.86.35,1.18,1.18,0,0,1,.35.87V82.09A1.18,1.18,0,0,1,352,83a1.19,1.19,0,0,1-.86.35H339.3A1.19,1.19,0,0,1,338.44,83Z"/><path class="a" d="M375.8,81a22.18,22.18,0,0,1-9.22-8.66,25.16,25.16,0,0,1-3.24-12.87V36.09a25.16,25.16,0,0,1,3.24-12.87,21.82,21.82,0,0,1,9.22-8.61,30.16,30.16,0,0,1,13.88-3,30.92,30.92,0,0,1,13.73,2.89,21.76,21.76,0,0,1,9.22,8.2A22.89,22.89,0,0,1,415.93,35c0,.6-.41,1-1.22,1.11l-11.85.71h-.21c-.67,0-1-.37-1-1.11a11.56,11.56,0,0,0-3.29-8.62,13.34,13.34,0,0,0-17.43,0,11.53,11.53,0,0,0-3.3,8.62V60.1a11.41,11.41,0,0,0,3.3,8.52,13.34,13.34,0,0,0,17.43,0,11.44,11.44,0,0,0,3.29-8.52c0-.74.4-1.11,1.22-1.11l11.85.51a1.29,1.29,0,0,1,.86.3.9.9,0,0,1,.36.71,23.13,23.13,0,0,1-3.3,12.36,22,22,0,0,1-9.22,8.31,30.52,30.52,0,0,1-13.73,2.94A29.8,29.8,0,0,1,375.8,81Z"/><path class="a" d="M460.81,81.54a21,21,0,0,1-9.37-7.4,19.31,19.31,0,0,1-3.29-11.2V60.71a1.17,1.17,0,0,1,.35-.86,1.21,1.21,0,0,1,.86-.35h11.55a1.2,1.2,0,0,1,1.22,1.21v1.52a8.26,8.26,0,0,0,3.75,6.84q3.75,2.79,10.13,2.79,5.37,0,8-2.28A7.16,7.16,0,0,0,486.65,64,5.68,5.68,0,0,0,485,59.85a14.48,14.48,0,0,0-4.41-2.94q-2.79-1.26-8.86-3.49a86.13,86.13,0,0,1-11.5-4.77A23.15,23.15,0,0,1,452.35,42a16.73,16.73,0,0,1-3.19-10.39A18.33,18.33,0,0,1,452.3,21,20,20,0,0,1,461,14a31.91,31.91,0,0,1,12.87-2.43,33,33,0,0,1,13.73,2.73A22.5,22.5,0,0,1,497,22a19.6,19.6,0,0,1,3.39,11.4v1.52a1.18,1.18,0,0,1-.35.87,1.21,1.21,0,0,1-.86.35H487.56a1.2,1.2,0,0,1-1.21-1.22v-.81a9.21,9.21,0,0,0-3.5-7.24q-3.5-3-9.57-3a12.12,12.12,0,0,0-7.45,2,6.6,6.6,0,0,0-2.69,5.57,6.12,6.12,0,0,0,1.57,4.26,14,14,0,0,0,4.67,3.09q3.09,1.36,9.57,3.69a117.65,117.65,0,0,1,11.3,4.67,22.59,22.59,0,0,1,7.4,6,15.85,15.85,0,0,1,3.29,10.39q0,9.53-7,15T475,84.12A36.12,36.12,0,0,1,460.81,81.54Z"/><path class="a" d="M557.82,12.38h11.85a1.21,1.21,0,0,1,1.22,1.22V82.09a1.21,1.21,0,0,1-1.22,1.22H557.82a1.2,1.2,0,0,1-1.22-1.22V37.41c0-.27-.07-.41-.2-.41s-.27.1-.41.31L545.25,54.13a1.59,1.59,0,0,1-1.42.81h-6a1.59,1.59,0,0,1-1.42-.81L525.69,37.31c-.13-.21-.27-.29-.4-.26s-.2.19-.2.46V82.09a1.21,1.21,0,0,1-1.22,1.22H512a1.21,1.21,0,0,1-.86-.35,1.18,1.18,0,0,1-.35-.87V13.6a1.18,1.18,0,0,1,.35-.87,1.21,1.21,0,0,1,.86-.35h11.86a1.59,1.59,0,0,1,1.42.81l15.2,23.61c.2.4.4.4.61,0l15.3-23.61A1.58,1.58,0,0,1,557.82,12.38Z"/><path class="a" d="M627.47,82.3l-3-9.93c-.14-.27-.31-.41-.51-.41H599c-.2,0-.37.14-.5.41l-2.94,9.93a1.27,1.27,0,0,1-1.32,1H581.36a1.15,1.15,0,0,1-.91-.35,1.12,1.12,0,0,1-.1-1.07l21.89-68.5a1.27,1.27,0,0,1,1.31-1h15.91a1.27,1.27,0,0,1,1.32,1l21.89,68.5a1.25,1.25,0,0,1,.1.51c0,.61-.37.91-1.12.91H628.78A1.27,1.27,0,0,1,627.47,82.3ZM602.54,60.92h17.83c.41,0,.54-.21.41-.61l-9.12-30.1c-.07-.27-.17-.38-.3-.35s-.24.15-.31.35l-8.91,30.1C602.07,60.71,602.2,60.92,602.54,60.92Z"/><path class="a" d="M689.62,82.4,677,54.33a.66.66,0,0,0-.61-.41h-9.43a.45.45,0,0,0-.5.51V82.09a1.21,1.21,0,0,1-1.22,1.22H653.35a1.21,1.21,0,0,1-1.22-1.22V13.6a1.21,1.21,0,0,1,1.22-1.22h29A23.86,23.86,0,0,1,693.73,15a18.61,18.61,0,0,1,7.6,7.5A23,23,0,0,1,704,33.76a20.06,20.06,0,0,1-3.44,11.8,18.41,18.41,0,0,1-9.63,6.95.47.47,0,0,0-.3.7l13.78,28.68a1.61,1.61,0,0,1,.2.61c0,.54-.37.81-1.12.81H691A1.43,1.43,0,0,1,689.62,82.4Zm-23.2-57.25V42.47a.45.45,0,0,0,.5.51H680.2a9.69,9.69,0,0,0,6.94-2.53,8.66,8.66,0,0,0,2.69-6.59,8.83,8.83,0,0,0-2.69-6.64,9.6,9.6,0,0,0-6.94-2.58H666.92A.45.45,0,0,0,666.42,25.15Z"/><path class="a" d="M764.87,12.73a1.18,1.18,0,0,1,.35.87v9.93a1.17,1.17,0,0,1-.35.86,1.21,1.21,0,0,1-.86.35H745.87a.45.45,0,0,0-.51.51V82.09a1.2,1.2,0,0,1-1.21,1.22H732.29a1.19,1.19,0,0,1-.86-.35,1.18,1.18,0,0,1-.35-.87V25.25a.45.45,0,0,0-.51-.51H712.94a1.21,1.21,0,0,1-1.22-1.21V13.6a1.21,1.21,0,0,1,1.22-1.22H764A1.21,1.21,0,0,1,764.87,12.73Z"/><path class="a" d="M93.63,182.31a22.87,22.87,0,0,1-9.27-8.77,25.34,25.34,0,0,1-3.29-13v-22.7a25.63,25.63,0,0,1,3.29-13.07A22.39,22.39,0,0,1,93.63,116a29.61,29.61,0,0,1,13.78-3.09,29.39,29.39,0,0,1,13.63,3,23,23,0,0,1,9.22,8.26,21.25,21.25,0,0,1,3.3,11.6v.71a1.21,1.21,0,0,1-1.22,1.21H120.49a1.18,1.18,0,0,1-.87-.35,1.19,1.19,0,0,1-.35-.86v-.31a10.6,10.6,0,0,0-3.24-7.85,11.77,11.77,0,0,0-8.62-3.19,11.65,11.65,0,0,0-8.76,3.39,12.19,12.19,0,0,0-3.29,8.87v23.51a11.7,11.7,0,0,0,3.54,8.86,12.5,12.5,0,0,0,9,3.4,12.2,12.2,0,0,0,8.41-2.79,9.84,9.84,0,0,0,3.14-7.75v-4.56a.45.45,0,0,0-.5-.51H107.62a1.18,1.18,0,0,1-.87-.35,1.19,1.19,0,0,1-.35-.86v-9.32a1.2,1.2,0,0,1,1.22-1.22h24.72a1.21,1.21,0,0,1,1.22,1.22v13.37a26.54,26.54,0,0,1-3.25,13.38,21.37,21.37,0,0,1-9.17,8.66,30.14,30.14,0,0,1-13.73,3A29.26,29.26,0,0,1,93.63,182.31Z"/><path class="a" d="M155.85,182.51a23.19,23.19,0,0,1-9.37-9.07A26.47,26.47,0,0,1,143.13,160V138.33a26,26,0,0,1,3.35-13.27,23,23,0,0,1,9.37-9,32.25,32.25,0,0,1,28,0,23.14,23.14,0,0,1,9.37,9,26,26,0,0,1,3.34,13.27V160a26.73,26.73,0,0,1-3.34,13.47,22.93,22.93,0,0,1-9.37,9.07,29.55,29.55,0,0,1-14,3.19A29,29,0,0,1,155.85,182.51Zm23-12.56a13,13,0,0,0,3.44-9.43V138.23a13.22,13.22,0,0,0-3.39-9.47,13.1,13.1,0,0,0-18,0,13.22,13.22,0,0,0-3.39,9.47v22.29a13.09,13.09,0,0,0,3.39,9.43,11.88,11.88,0,0,0,9,3.54A12,12,0,0,0,178.8,170Z"/><path class="a" d="M223.38,183.62l-20.87-68.49-.1-.41c0-.67.37-1,1.11-1h12.77a1.34,1.34,0,0,1,1.42,1l13.48,49.45q.09.3.3.3c.13,0,.24-.1.3-.3l13.28-49.45a1.33,1.33,0,0,1,1.42-1H259a1,1,0,0,1,1,1.42l-21.17,68.49a1.29,1.29,0,0,1-1.32,1H224.7A1.28,1.28,0,0,1,223.38,183.62Z"/><path class="a" d="M318.22,125.61a1.18,1.18,0,0,1-.86.36H284.12a.45.45,0,0,0-.51.51v15.7a.45.45,0,0,0,.51.51h21.79a1.2,1.2,0,0,1,1.21,1.21v9.83a1.21,1.21,0,0,1-1.21,1.22H284.12a.45.45,0,0,0-.51.51v16.41a.45.45,0,0,0,.51.51h33.24a1.2,1.2,0,0,1,1.21,1.21v9.83a1.21,1.21,0,0,1-1.21,1.22H270.54a1.16,1.16,0,0,1-.86-.36,1.14,1.14,0,0,1-.35-.86v-68.5a1.17,1.17,0,0,1,.35-.86,1.19,1.19,0,0,1,.86-.35h46.82a1.2,1.2,0,0,1,1.21,1.21v9.83A1.18,1.18,0,0,1,318.22,125.61Z"/><path class="a" d="M365.88,183.73l-12.66-28.07a.66.66,0,0,0-.61-.41h-9.43a.45.45,0,0,0-.5.51v27.66a1.23,1.23,0,0,1-1.22,1.22H329.61a1.21,1.21,0,0,1-1.22-1.22v-68.5a1.2,1.2,0,0,1,1.22-1.21h29a23.86,23.86,0,0,1,11.4,2.63,18.55,18.55,0,0,1,7.6,7.5,23,23,0,0,1,2.68,11.25,20.06,20.06,0,0,1-3.44,11.8,18.34,18.34,0,0,1-9.63,6.94.48.48,0,0,0-.3.71l13.78,28.68a1.61,1.61,0,0,1,.2.61c0,.54-.37.81-1.12.81H367.3A1.44,1.44,0,0,1,365.88,183.73Zm-23.2-57.25V143.8a.45.45,0,0,0,.5.51h13.28a9.69,9.69,0,0,0,6.94-2.53,8.65,8.65,0,0,0,2.68-6.59,8.82,8.82,0,0,0-2.68-6.64,9.6,9.6,0,0,0-6.94-2.58H343.18A.45.45,0,0,0,342.68,126.48Z"/><path class="a" d="M431.7,114.06a1.18,1.18,0,0,1,.86-.35h11.85a1.21,1.21,0,0,1,1.22,1.21v68.5a1.23,1.23,0,0,1-1.22,1.22H433a1.46,1.46,0,0,1-1.42-.81L405.3,140.46c-.14-.2-.27-.29-.41-.25s-.2.18-.2.45l.2,42.76a1.21,1.21,0,0,1-1.21,1.22H391.82a1.16,1.16,0,0,1-.86-.36,1.14,1.14,0,0,1-.35-.86v-68.5a1.17,1.17,0,0,1,.35-.86,1.19,1.19,0,0,1,.86-.35h11.45a1.45,1.45,0,0,1,1.42.81l26.14,43.17c.14.2.27.28.41.25s.2-.19.2-.46l-.1-42.56A1.18,1.18,0,0,1,431.7,114.06Z"/><path class="a" d="M505,113.71h11.85a1.19,1.19,0,0,1,.86.35,1.18,1.18,0,0,1,.36.86v68.5a1.15,1.15,0,0,1-.36.86,1.16,1.16,0,0,1-.86.36H505a1.21,1.21,0,0,1-1.22-1.22V138.74c0-.27-.07-.41-.2-.41s-.27.1-.41.31l-10.74,16.82a1.59,1.59,0,0,1-1.42.81h-6a1.58,1.58,0,0,1-1.41-.81l-10.75-16.82c-.13-.21-.27-.29-.4-.26s-.2.19-.2.46v44.58a1.15,1.15,0,0,1-.36.86,1.16,1.16,0,0,1-.86.36H459.19a1.21,1.21,0,0,1-1.22-1.22v-68.5a1.2,1.2,0,0,1,1.22-1.21H471a1.59,1.59,0,0,1,1.42.81l15.2,23.61c.2.4.4.4.61,0l15.3-23.61A1.58,1.58,0,0,1,505,113.71Z"/><path class="a" d="M579.29,125.61a1.16,1.16,0,0,1-.86.36H545.19a.44.44,0,0,0-.5.51v15.7a.44.44,0,0,0,.5.51H567a1.19,1.19,0,0,1,.86.35,1.17,1.17,0,0,1,.35.86v9.83a1.14,1.14,0,0,1-.35.86,1.16,1.16,0,0,1-.86.36H545.19a.44.44,0,0,0-.5.51v16.41a.44.44,0,0,0,.5.51h33.24a1.19,1.19,0,0,1,.86.35,1.17,1.17,0,0,1,.35.86v9.83a1.14,1.14,0,0,1-.35.86,1.16,1.16,0,0,1-.86.36H531.62a1.21,1.21,0,0,1-1.22-1.22v-68.5a1.2,1.2,0,0,1,1.22-1.21h46.81a1.19,1.19,0,0,1,.86.35,1.17,1.17,0,0,1,.35.86v9.83A1.14,1.14,0,0,1,579.29,125.61Z"/><path class="a" d="M630.55,114.06a1.21,1.21,0,0,1,.86-.35h11.86a1.19,1.19,0,0,1,.86.35,1.18,1.18,0,0,1,.36.86v68.5a1.15,1.15,0,0,1-.36.86,1.16,1.16,0,0,1-.86.36H631.82a1.45,1.45,0,0,1-1.42-.81l-26.24-43.37c-.14-.2-.27-.29-.41-.25s-.2.18-.2.45l.2,42.76a1.21,1.21,0,0,1-1.21,1.22H590.68a1.23,1.23,0,0,1-1.22-1.22v-68.5a1.21,1.21,0,0,1,1.22-1.21h11.45a1.46,1.46,0,0,1,1.42.81l26.14,43.17c.14.2.27.28.41.25s.2-.19.2-.46l-.1-42.56A1.21,1.21,0,0,1,630.55,114.06Z"/><path class="a" d="M707,114.06a1.18,1.18,0,0,1,.36.86v9.93a1.21,1.21,0,0,1-1.22,1.22H688a.45.45,0,0,0-.51.51v56.84a1.23,1.23,0,0,1-1.22,1.22H674.46a1.23,1.23,0,0,1-1.22-1.22V126.58a.45.45,0,0,0-.5-.51H655.1a1.19,1.19,0,0,1-.86-.35,1.18,1.18,0,0,1-.35-.87v-9.93a1.17,1.17,0,0,1,.35-.86,1.19,1.19,0,0,1,.86-.35h51.07A1.18,1.18,0,0,1,707,114.06Z"/><path class="a" d="M143,285.26c0,.47-.37.71-1.11.71H128.59a1.93,1.93,0,0,1-1.52-.71L123.12,281c-.14-.2-.37-.23-.71-.1a37.6,37.6,0,0,1-20.27,5.88q-9.52,0-15.85-4.51T80,268.94a18,18,0,0,1,3.65-11.45,35.57,35.57,0,0,1,9.93-8.41c.41-.27.44-.5.1-.71A53.06,53.06,0,0,1,87,238.8a16.48,16.48,0,0,1-1.63-7.25,15.78,15.78,0,0,1,2.59-8.76,17.49,17.49,0,0,1,7.29-6.28A24.48,24.48,0,0,1,106,214.23a25.53,25.53,0,0,1,11.1,2.33,18.11,18.11,0,0,1,7.65,6.53,17.23,17.23,0,0,1,2.74,9.58,17.5,17.5,0,0,1-3.5,10.89,35,35,0,0,1-9.47,8.36c-.34.2-.38.44-.1.71l9,10.23a.5.5,0,0,0,.81,0,59.25,59.25,0,0,0,6.29-8.1,1,1,0,0,1,1.62-.41l8.81,5q1.13.6.51,1.62a78.62,78.62,0,0,1-8.92,11.65c-.2.2-.13.51.21.91l9.83,10.95A2.14,2.14,0,0,1,143,285.26Zm-29.39-13.88c.41-.27.44-.51.11-.71l-3.14-3.55-2.34-2.53c-1.48-1.56-3.21-3.45-5.16-5.68-.14-.2-.38-.23-.71-.1a28.09,28.09,0,0,0-5.58,4.26,8,8,0,0,0-2.23,4.66,3.85,3.85,0,0,0-.1,1,5.2,5.2,0,0,0,2.28,4.41,9.82,9.82,0,0,0,5.93,1.67Q107.51,274.82,113.59,271.38Zm-12.15-42.61a5.26,5.26,0,0,0-1.83,4.2,6.32,6.32,0,0,0,1,3.14,56.67,56.67,0,0,0,4.46,5.88c.14.27.37.34.71.2a26,26,0,0,0,5.52-4.46,7,7,0,0,0,1.88-4.76,5.14,5.14,0,0,0-1.93-4.2,7.56,7.56,0,0,0-5-1.57A7.15,7.15,0,0,0,101.44,228.77Z"/><path class="a" d="M220.29,249.59q9.63,5,9.63,16.52,0,9.83-6.69,14.84t-17.53,5H179.46a1.23,1.23,0,0,1-1.22-1.22v-68.5a1.21,1.21,0,0,1,1.22-1.21h25.43q24,0,24,19.45,0,10.14-8.62,14.49C219.89,249.18,219.89,249.39,220.29,249.59ZM192.53,227.8v15.81a.45.45,0,0,0,.5.51h11.86q4.76,0,7.4-2.23a7.56,7.56,0,0,0,2.63-6.08,7.82,7.82,0,0,0-2.63-6.23q-2.64-2.28-7.4-2.28H193A.44.44,0,0,0,192.53,227.8ZM213,271.22a9.43,9.43,0,0,0,0-13.07c-1.76-1.58-4.23-2.38-7.4-2.38H193a.45.45,0,0,0-.5.51V273.1a.45.45,0,0,0,.5.51H205.7A10.49,10.49,0,0,0,213,271.22Z"/><path class="a" d="M252.57,283.74a22.4,22.4,0,0,1-9.23-8.56,24.4,24.4,0,0,1-3.29-12.72V216.25a1.21,1.21,0,0,1,1.22-1.21h11.85a1.21,1.21,0,0,1,1.22,1.21v46.31a12,12,0,1,0,23.91,0V216.25a1.21,1.21,0,0,1,1.22-1.21h11.85a1.21,1.21,0,0,1,1.22,1.21v46.21a24.4,24.4,0,0,1-3.29,12.72,22.43,22.43,0,0,1-9.22,8.56,32.53,32.53,0,0,1-27.46,0Z"/><path class="a" d="M314.65,284.19a20.86,20.86,0,0,1-9.37-7.39,19.32,19.32,0,0,1-3.3-11.2v-2.23a1.16,1.16,0,0,1,.36-.86,1.14,1.14,0,0,1,.86-.35h11.55a1.21,1.21,0,0,1,1.22,1.21v1.52a8.29,8.29,0,0,0,3.75,6.84q3.73,2.79,10.13,2.79,5.37,0,8-2.28a7.16,7.16,0,0,0,2.64-5.63,5.66,5.66,0,0,0-1.62-4.1,14.48,14.48,0,0,0-4.41-2.94q-2.79-1.26-8.87-3.49a88.06,88.06,0,0,1-11.5-4.77,23.12,23.12,0,0,1-7.9-6.63A16.69,16.69,0,0,1,303,234.29a18.26,18.26,0,0,1,3.14-10.64,20,20,0,0,1,8.71-7,32,32,0,0,1,12.87-2.43A33,33,0,0,1,341.45,217a22.44,22.44,0,0,1,9.42,7.65,19.53,19.53,0,0,1,3.4,11.4v1.52a1.23,1.23,0,0,1-1.22,1.22H341.4a1.16,1.16,0,0,1-.86-.36,1.15,1.15,0,0,1-.36-.86v-.81a9.18,9.18,0,0,0-3.49-7.24q-3.49-3-9.58-3c-3.17,0-5.66.67-7.44,2a6.59,6.59,0,0,0-2.69,5.58,6,6,0,0,0,1.57,4.25,13.77,13.77,0,0,0,4.66,3.09q3.09,1.38,9.58,3.7a121.84,121.84,0,0,1,11.3,4.66,22.59,22.59,0,0,1,7.39,6,15.8,15.8,0,0,1,3.3,10.39q0,9.53-7,15.05t-18.94,5.52A35.9,35.9,0,0,1,314.65,284.19Z"/><path class="a" d="M365,285.61a1.15,1.15,0,0,1-.36-.86v-68.5a1.21,1.21,0,0,1,1.22-1.21h11.86a1.2,1.2,0,0,1,1.21,1.21v68.5a1.21,1.21,0,0,1-1.21,1.22H365.85A1.15,1.15,0,0,1,365,285.61Z"/><path class="a" d="M432.29,215.39a1.19,1.19,0,0,1,.86-.35H445a1.2,1.2,0,0,1,1.21,1.21v68.5A1.21,1.21,0,0,1,445,286H433.56a1.45,1.45,0,0,1-1.42-.81l-26.25-43.37c-.13-.21-.27-.29-.4-.25s-.2.18-.2.45l.2,42.76a1.23,1.23,0,0,1-1.22,1.22H392.42a1.23,1.23,0,0,1-1.22-1.22v-68.5a1.21,1.21,0,0,1,1.22-1.21h11.45a1.47,1.47,0,0,1,1.42.81L431.43,259c.13.21.27.29.4.26s.21-.19.21-.46l-.11-42.56A1.18,1.18,0,0,1,432.29,215.39Z"/><path class="a" d="M507.45,226.94a1.15,1.15,0,0,1-.86.36H473.36a.45.45,0,0,0-.51.5v15.71a.45.45,0,0,0,.51.51h21.78a1.21,1.21,0,0,1,1.22,1.21v9.83a1.23,1.23,0,0,1-1.22,1.22H473.36a.45.45,0,0,0-.51.51V273.2a.45.45,0,0,0,.51.51h33.23a1.21,1.21,0,0,1,1.22,1.21v9.83a1.23,1.23,0,0,1-1.22,1.22H459.78a1.23,1.23,0,0,1-1.22-1.22v-68.5a1.21,1.21,0,0,1,1.22-1.21h46.81a1.21,1.21,0,0,1,1.22,1.21v9.83A1.15,1.15,0,0,1,507.45,226.94Z"/><path class="a" d="M528.43,284.19a20.86,20.86,0,0,1-9.37-7.39,19.32,19.32,0,0,1-3.3-11.2v-2.23a1.16,1.16,0,0,1,.36-.86,1.14,1.14,0,0,1,.86-.35h11.55a1.14,1.14,0,0,1,.86.35,1.16,1.16,0,0,1,.36.86v1.52a8.29,8.29,0,0,0,3.75,6.84q3.74,2.79,10.13,2.79,5.37,0,8-2.28a7.16,7.16,0,0,0,2.64-5.63,5.66,5.66,0,0,0-1.62-4.1,14.48,14.48,0,0,0-4.41-2.94q-2.79-1.26-8.87-3.49a88.06,88.06,0,0,1-11.5-4.77,23.12,23.12,0,0,1-7.9-6.63,16.69,16.69,0,0,1-3.19-10.39,18.26,18.26,0,0,1,3.14-10.64,20,20,0,0,1,8.71-7,32,32,0,0,1,12.87-2.43A33,33,0,0,1,555.23,217a22.53,22.53,0,0,1,9.43,7.65,19.6,19.6,0,0,1,3.39,11.4v1.52a1.21,1.21,0,0,1-1.22,1.22H555.18a1.16,1.16,0,0,1-.86-.36,1.15,1.15,0,0,1-.36-.86v-.81a9.18,9.18,0,0,0-3.49-7.24q-3.5-3-9.58-3-4.75,0-7.44,2a6.62,6.62,0,0,0-2.69,5.58,6,6,0,0,0,1.57,4.25,13.77,13.77,0,0,0,4.66,3.09q3.09,1.38,9.58,3.7a121.84,121.84,0,0,1,11.3,4.66,22.59,22.59,0,0,1,7.39,6,15.8,15.8,0,0,1,3.3,10.39q0,9.53-7,15.05t-18.94,5.52A35.9,35.9,0,0,1,528.43,284.19Z"/><path class="a" d="M590,284.19a20.89,20.89,0,0,1-9.38-7.39,19.39,19.39,0,0,1-3.29-11.2v-2.23a1.19,1.19,0,0,1,.35-.86,1.18,1.18,0,0,1,.87-.35h11.55a1.17,1.17,0,0,1,.86.35,1.19,1.19,0,0,1,.35.86v1.52a8.29,8.29,0,0,0,3.75,6.84q3.75,2.79,10.14,2.79,5.36,0,8-2.28a7.15,7.15,0,0,0,2.63-5.63,5.66,5.66,0,0,0-1.62-4.1,14.55,14.55,0,0,0-4.4-2.94q-2.79-1.26-8.87-3.49a87.48,87.48,0,0,1-11.5-4.77,23.15,23.15,0,0,1-7.91-6.63,16.75,16.75,0,0,1-3.19-10.39,18.33,18.33,0,0,1,3.14-10.64,20,20,0,0,1,8.72-7A31.91,31.91,0,0,1,603,214.23,33,33,0,0,1,616.75,217a22.44,22.44,0,0,1,9.42,7.65,19.61,19.61,0,0,1,3.4,11.4v1.52a1.15,1.15,0,0,1-.36.86,1.16,1.16,0,0,1-.86.36H616.7a1.21,1.21,0,0,1-1.22-1.22v-.81a9.18,9.18,0,0,0-3.49-7.24q-3.51-3-9.58-3-4.77,0-7.45,2a6.61,6.61,0,0,0-2.68,5.58,6,6,0,0,0,1.57,4.25,13.67,13.67,0,0,0,4.66,3.09q3.09,1.38,9.57,3.7a119.55,119.55,0,0,1,11.3,4.66,22.62,22.62,0,0,1,7.4,6,15.85,15.85,0,0,1,3.29,10.39q0,9.53-7,15.05t-19,5.52A35.89,35.89,0,0,1,590,284.19Z"/><path class="b" d="M3.13,298.38a1.15,1.15,0,0,1-.36-.86V5a1.15,1.15,0,0,1,.36-.86A1.15,1.15,0,0,1,4,3.73H15.84A1.23,1.23,0,0,1,17.06,5V297.52a1.23,1.23,0,0,1-1.22,1.22H4A1.15,1.15,0,0,1,3.13,298.38Z"/></svg>